<?xml version="1.0" standalone="no"?>
<!DOCTYPE svg PUBLIC "-//W3C//DTD SVG 20010904//EN"
 "http://www.w3.org/TR/2001/REC-SVG-20010904/DTD/svg10.dtd">
<svg version="1.0" xmlns="http://www.w3.org/2000/svg"
 width="512.000000pt" height="512.000000pt" viewBox="0 0 512.000000 512.000000"
 preserveAspectRatio="xMidYMid meet">

<g transform="translate(0.000000,512.000000) scale(0.100000,-0.100000)"
fill="#000000" stroke="none">
<path d="M3976 4005 c4 -8 11 -15 18 -15 6 0 22 -9 36 -20 26 -20 70 -27 70
-11 0 9 47 1 93 -18 15 -6 27 -7 27 -2 0 8 -63 31 -170 62 -79 23 -81 23 -74
4z"/>
<path d="M3990 3955 c0 -8 2 -15 4 -15 2 0 6 7 10 15 3 8 1 15 -4 15 -6 0 -10
-7 -10 -15z"/>
<path d="M4415 3859 c22 -11 50 -27 61 -34 12 -8 31 -11 42 -9 11 3 23 1 26
-5 8 -12 36 -15 36 -3 0 7 -177 72 -196 72 -5 0 9 -9 31 -21z"/>
<path d="M3787 3483 c-20 -40 -37 -76 -37 -80 1 -10 39 39 40 50 0 5 9 22 21
38 11 16 19 37 17 47 -2 10 -17 -10 -41 -55z"/>
<path d="M1997 3373 c-14 -4 -17 -14 -16 -54 1 -27 7 -53 12 -56 6 -4 8 1 4
11 -6 15 -3 17 16 12 13 -3 27 -3 30 0 8 8 -13 64 -25 64 -6 0 -8 7 -4 15 3 8
4 14 3 14 -1 -1 -10 -3 -20 -6z m18 -53 c3 -5 1 -10 -4 -10 -6 0 -11 5 -11 10
0 6 2 10 4 10 3 0 8 -4 11 -10z"/>
<path d="M1684 3162 c-51 -31 -102 -64 -115 -73 l-24 -17 29 -31 c23 -23 32
-28 43 -20 10 9 13 6 13 -11 0 -13 3 -20 7 -16 4 4 7 19 8 34 0 17 7 30 21 36
11 5 25 19 30 30 6 14 18 21 39 21 30 1 89 26 99 44 7 11 -32 61 -47 61 -7 -1
-53 -26 -103 -58z"/>
<path d="M746 2538 c-21 -17 -21 -17 20 -58 55 -56 71 -56 117 -1 67 80 67 78
-31 77 -65 -1 -91 -5 -106 -18z"/>
</g>
</svg>
